<svg id="svg" version="1.1" xmlns="http://www.w3.org/2000/svg" xmlns:xlink="http://www.w3.org/1999/xlink" width="400" height="205.17711171662125" viewBox="0, 0, 400,205.17711171662125"><g id="svgg"><path id="path0" d="M0.010 58.645 L 0.021 117.291 2.011 118.872 C 4.316 120.703,6.360 122.096,8.107 123.026 C 8.784 123.386,9.985 124.037,10.775 124.471 C 12.402 125.365,14.037 126.186,15.393 126.788 C 15.900 127.014,16.841 127.440,17.483 127.735 C 18.126 128.030,18.726 128.274,18.817 128.278 C 18.909 128.282,19.354 128.463,19.805 128.681 C 20.257 128.899,20.764 129.084,20.934 129.092 C 21.103 129.100,21.611 129.284,22.063 129.502 C 22.514 129.720,23.022 129.903,23.191 129.907 C 23.361 129.912,23.740 130.041,24.034 130.194 C 24.328 130.348,25.067 130.590,25.676 130.733 C 26.285 130.876,26.875 131.061,26.988 131.144 C 27.101 131.227,27.701 131.412,28.322 131.555 C 28.943 131.697,29.543 131.885,29.656 131.972 C 29.769 132.059,30.554 132.273,31.401 132.448 C 32.247 132.622,33.725 132.962,34.684 133.202 C 35.644 133.442,37.075 133.768,37.866 133.927 C 38.656 134.086,39.810 134.349,40.431 134.512 C 41.052 134.674,42.068 134.871,42.689 134.949 C 43.309 135.027,43.910 135.147,44.023 135.216 C 44.135 135.284,44.320 135.348,44.433 135.358 C 45.626 135.459,47.204 135.742,47.204 135.856 C 47.204 135.934,47.496 135.956,47.853 135.903 C 48.318 135.835,48.578 135.912,48.770 136.175 C 48.987 136.472,49.096 136.493,49.343 136.288 C 49.511 136.148,49.744 136.094,49.862 136.166 C 50.064 136.291,53.549 136.809,55.310 136.976 C 59.618 137.384,62.847 137.754,63.559 137.921 C 64.033 138.031,65.025 138.122,65.766 138.122 C 66.506 138.122,67.111 138.192,67.111 138.277 C 67.111 138.363,67.827 138.437,68.702 138.443 C 69.577 138.448,70.939 138.506,71.729 138.571 C 81.689 139.395,100.030 139.812,112.263 139.493 C 128.712 139.063,132.233 138.941,134.531 138.723 C 135.885 138.595,138.494 138.476,140.328 138.460 C 142.162 138.443,143.662 138.361,143.663 138.276 C 143.663 138.191,144.448 138.122,145.408 138.122 C 146.512 138.122,147.152 138.203,147.152 138.342 C 147.152 138.463,147.290 138.425,147.457 138.257 C 147.796 137.918,148.412 137.851,155.567 137.371 C 158.220 137.192,160.759 137.011,161.211 136.968 C 161.662 136.925,163.787 136.758,165.931 136.596 C 168.076 136.435,169.999 136.238,170.204 136.159 C 170.409 136.080,170.802 136.136,171.078 136.284 C 171.516 136.518,171.615 136.504,171.853 136.178 C 172.087 135.858,172.336 135.820,173.595 135.910 C 174.403 135.968,175.064 135.949,175.064 135.867 C 175.064 135.719,178.455 135.396,179.777 135.419 C 180.168 135.426,180.602 135.337,180.741 135.222 C 180.879 135.107,181.483 135.031,182.082 135.053 C 182.681 135.075,183.330 135.027,183.525 134.946 C 183.720 134.865,184.344 134.830,184.911 134.870 C 185.478 134.909,185.942 134.884,185.942 134.815 C 185.941 134.667,188.222 134.387,189.852 134.334 C 190.478 134.314,191.079 134.243,191.187 134.176 C 191.294 134.110,192.398 134.024,193.639 133.985 C 195.247 133.935,195.959 133.833,196.118 133.631 C 196.279 133.425,196.685 133.372,197.606 133.439 C 198.302 133.489,198.871 133.447,198.871 133.345 C 198.871 133.242,199.379 133.190,200.000 133.229 C 200.621 133.267,201.129 133.221,201.129 133.126 C 201.129 133.031,201.628 132.985,202.238 133.024 C 202.849 133.062,203.305 133.025,203.253 132.940 C 203.200 132.855,203.185 132.779,203.220 132.771 C 203.519 132.699,210.478 131.913,211.215 131.868 C 211.740 131.837,212.248 131.764,212.344 131.707 C 212.440 131.651,213.350 131.528,214.366 131.434 C 216.618 131.227,216.553 131.236,216.932 131.083 C 217.213 130.970,222.421 130.381,224.450 130.234 C 224.916 130.200,225.404 130.107,225.533 130.027 C 225.662 129.947,226.083 129.909,226.469 129.943 C 226.855 129.976,227.238 129.937,227.319 129.855 C 227.401 129.774,227.908 129.708,228.447 129.708 C 228.986 129.708,229.490 129.605,229.568 129.479 C 229.654 129.340,230.062 129.289,230.607 129.351 C 231.100 129.406,231.503 129.383,231.503 129.298 C 231.503 129.214,232.358 129.078,233.402 128.997 C 234.446 128.916,235.416 128.753,235.559 128.636 C 235.701 128.519,236.180 128.471,236.623 128.531 C 237.067 128.590,237.488 128.579,237.560 128.506 C 237.633 128.433,238.539 128.256,239.574 128.111 C 240.610 127.967,241.803 127.796,242.227 127.731 C 242.723 127.654,242.996 127.693,242.996 127.839 C 242.996 127.964,243.086 128.066,243.195 128.066 C 243.305 128.066,243.337 127.917,243.267 127.735 C 243.159 127.453,243.283 127.415,244.094 127.480 C 244.619 127.521,245.049 127.494,245.049 127.419 C 245.049 127.344,245.580 127.226,246.229 127.156 C 246.878 127.087,247.732 126.996,248.127 126.954 C 248.522 126.912,249.008 126.812,249.206 126.731 C 249.404 126.650,249.889 126.622,250.283 126.668 C 250.678 126.714,251.001 126.669,251.001 126.567 C 251.001 126.466,251.404 126.415,251.898 126.454 C 252.391 126.494,252.891 126.424,253.008 126.298 C 253.250 126.039,256.022 125.716,256.336 125.910 C 256.449 125.980,256.542 125.949,256.542 125.841 C 256.542 125.733,256.934 125.593,257.414 125.530 C 257.894 125.468,258.633 125.356,259.056 125.282 C 259.620 125.183,259.826 125.219,259.826 125.414 C 259.826 125.580,259.929 125.540,260.099 125.308 C 260.302 125.029,260.564 124.957,261.125 125.022 C 261.539 125.070,261.878 125.045,261.878 124.966 C 261.878 124.886,262.317 124.773,262.853 124.714 C 263.389 124.655,264.128 124.543,264.495 124.465 C 264.978 124.364,265.162 124.399,265.162 124.593 C 265.162 124.758,265.268 124.715,265.439 124.481 C 265.655 124.186,265.880 124.129,266.465 124.224 C 266.877 124.291,267.214 124.271,267.214 124.179 C 267.214 124.032,268.024 123.891,270.190 123.662 C 270.528 123.626,270.968 123.530,271.167 123.448 C 271.366 123.366,271.805 123.340,272.142 123.389 C 272.479 123.439,272.755 123.412,272.755 123.330 C 272.755 123.248,273.148 123.131,273.628 123.070 C 274.107 123.009,275.423 122.810,276.552 122.629 C 277.681 122.449,278.809 122.337,279.059 122.383 C 279.309 122.428,279.546 122.369,279.585 122.251 C 279.624 122.134,280.805 121.876,282.209 121.677 C 283.613 121.479,285.962 121.114,287.429 120.867 C 288.897 120.619,290.351 120.406,290.662 120.393 C 290.972 120.380,291.226 120.291,291.226 120.195 C 291.226 120.099,291.642 120.053,292.150 120.094 C 292.658 120.134,293.073 120.107,293.073 120.032 C 293.073 119.958,293.466 119.856,293.946 119.805 C 294.942 119.699,298.191 119.161,300.462 118.727 C 301.308 118.565,302.694 118.339,303.540 118.224 C 304.387 118.110,305.310 117.954,305.593 117.878 C 305.875 117.802,306.452 117.731,306.875 117.720 C 307.299 117.710,307.645 117.644,307.645 117.574 C 307.645 117.460,310.324 117.120,310.648 117.194 C 310.721 117.210,310.837 117.139,310.906 117.036 C 311.023 116.860,312.437 116.614,317.701 115.853 C 318.887 115.681,320.110 115.439,320.419 115.314 C 320.729 115.190,321.214 115.132,321.497 115.186 C 321.780 115.240,322.011 115.217,322.011 115.134 C 322.011 115.051,322.679 114.918,323.495 114.838 C 324.311 114.757,325.073 114.630,325.188 114.554 C 325.303 114.479,326.367 114.258,327.553 114.064 C 331.432 113.426,334.012 112.956,334.325 112.828 C 334.711 112.671,338.712 112.036,339.610 111.989 C 339.977 111.970,340.277 111.876,340.277 111.779 C 340.277 111.683,340.646 111.639,341.098 111.682 C 341.550 111.725,341.919 111.689,341.919 111.601 C 341.919 111.513,342.283 111.442,342.728 111.442 C 343.173 111.442,343.599 111.341,343.676 111.217 C 343.752 111.093,344.081 111.031,344.406 111.079 C 344.731 111.126,344.997 111.104,344.997 111.029 C 344.997 110.954,345.667 110.793,346.485 110.670 C 347.304 110.548,348.473 110.341,349.084 110.211 C 349.695 110.081,350.364 110.019,350.572 110.073 C 350.779 110.128,350.949 110.078,350.949 109.963 C 350.949 109.846,351.262 109.791,351.662 109.838 C 352.138 109.894,352.410 109.828,352.482 109.640 C 352.544 109.478,352.831 109.378,353.155 109.403 C 353.466 109.428,353.883 109.378,354.082 109.293 C 354.281 109.208,354.628 109.186,354.852 109.244 C 355.076 109.303,355.259 109.267,355.259 109.165 C 355.259 109.063,355.623 108.979,356.068 108.979 C 356.513 108.979,356.934 108.887,357.004 108.774 C 357.184 108.481,358.078 108.519,358.202 108.825 C 358.267 108.987,358.311 108.956,358.321 108.743 C 358.334 108.477,358.645 108.374,359.775 108.261 C 360.566 108.181,361.264 108.033,361.326 107.932 C 361.497 107.655,362.393 107.710,362.512 108.004 C 362.570 108.149,362.622 108.095,362.631 107.879 C 362.645 107.566,362.776 107.512,363.366 107.581 C 363.761 107.627,364.084 107.582,364.084 107.480 C 364.084 107.377,364.453 107.329,364.903 107.372 C 365.354 107.415,365.751 107.365,365.786 107.261 C 365.839 107.101,369.162 106.416,370.857 106.216 C 371.139 106.182,371.508 106.100,371.678 106.033 C 371.847 105.965,372.494 105.885,373.114 105.854 C 373.735 105.823,374.350 105.698,374.481 105.575 C 374.611 105.453,375.525 105.239,376.511 105.101 C 377.498 104.963,378.858 104.709,379.533 104.536 C 380.209 104.363,380.981 104.263,381.248 104.314 C 381.515 104.365,381.734 104.337,381.734 104.252 C 381.734 104.166,382.081 104.045,382.504 103.983 C 383.459 103.842,386.450 103.302,387.685 103.046 C 388.339 102.911,388.695 102.926,388.905 103.095 C 389.134 103.280,389.167 103.278,389.051 103.085 C 388.955 102.924,389.069 102.796,389.371 102.727 C 390.060 102.571,392.443 102.174,392.919 102.136 C 393.145 102.118,393.376 102.052,393.433 101.989 C 393.565 101.841,396.675 101.333,397.281 101.360 C 397.535 101.371,397.742 101.289,397.742 101.178 C 397.742 101.066,397.962 100.975,398.230 100.975 C 398.498 100.975,399.006 100.917,399.359 100.847 L 400.000 100.718 400.000 50.359 L 400.000 0.000 200.000 0.000 L 0.000 0.000 0.010 58.645 M0.616 13.853 C 0.616 14.879,0.531 15.598,0.410 15.598 C 0.290 15.598,0.205 14.879,0.205 13.853 C 0.205 12.827,0.290 12.109,0.410 12.109 C 0.531 12.109,0.616 12.827,0.616 13.853 " stroke="none" fill="#54c4fc" fill-rule="evenodd"></path><path id="path1" d="M398.153 101.385 C 398.153 101.498,398.338 101.591,398.563 101.591 C 398.789 101.591,398.974 101.498,398.974 101.385 C 398.974 101.272,398.789 101.180,398.563 101.180 C 398.338 101.180,398.153 101.272,398.153 101.385 M396.716 101.591 C 396.716 101.703,396.855 101.796,397.024 101.796 C 397.193 101.796,397.332 101.703,397.332 101.591 C 397.332 101.478,397.193 101.385,397.024 101.385 C 396.855 101.385,396.716 101.478,396.716 101.591 M393.843 102.206 C 393.843 102.319,394.028 102.411,394.253 102.411 C 394.479 102.411,394.664 102.319,394.664 102.206 C 394.664 102.093,394.479 102.001,394.253 102.001 C 394.028 102.001,393.843 102.093,393.843 102.206 M392.406 102.411 C 392.406 102.524,392.591 102.617,392.817 102.617 C 393.043 102.617,393.227 102.524,393.227 102.411 C 393.227 102.299,393.043 102.206,392.817 102.206 C 392.591 102.206,392.406 102.299,392.406 102.411 M389.533 103.027 C 389.533 103.140,389.718 103.232,389.944 103.232 C 390.169 103.232,390.354 103.140,390.354 103.027 C 390.354 102.914,390.169 102.822,389.944 102.822 C 389.718 102.822,389.533 102.914,389.533 103.027 M388.096 103.232 C 387.857 103.387,387.913 103.432,388.353 103.435 C 388.663 103.436,388.917 103.345,388.917 103.232 C 388.917 102.973,388.498 102.973,388.096 103.232 M385.018 103.848 C 385.018 103.961,385.249 104.053,385.531 104.053 C 385.813 104.053,386.044 103.961,386.044 103.848 C 386.044 103.735,385.813 103.643,385.531 103.643 C 385.249 103.643,385.018 103.735,385.018 103.848 M383.684 104.053 C 383.612 104.170,383.788 104.259,384.094 104.259 C 384.400 104.259,384.577 104.170,384.505 104.053 C 384.435 103.940,384.250 103.848,384.094 103.848 C 383.938 103.848,383.754 103.940,383.684 104.053 M380.708 104.669 C 380.708 104.782,380.893 104.874,381.119 104.874 C 381.344 104.874,381.529 104.782,381.529 104.669 C 381.529 104.556,381.344 104.464,381.119 104.464 C 380.893 104.464,380.708 104.556,380.708 104.669 M379.271 104.874 C 379.271 104.987,379.508 105.080,379.797 105.080 C 380.094 105.080,380.267 104.991,380.195 104.874 C 380.125 104.761,379.889 104.669,379.670 104.669 C 379.451 104.669,379.271 104.761,379.271 104.874 M376.296 105.490 C 376.224 105.606,376.396 105.695,376.694 105.695 C 376.983 105.695,377.219 105.603,377.219 105.490 C 377.219 105.377,377.040 105.285,376.821 105.285 C 376.602 105.285,376.365 105.377,376.296 105.490 M374.962 105.695 C 374.962 105.808,375.146 105.900,375.372 105.900 C 375.598 105.900,375.782 105.808,375.782 105.695 C 375.782 105.582,375.598 105.490,375.372 105.490 C 375.146 105.490,374.962 105.582,374.962 105.695 M372.088 106.311 C 372.088 106.424,372.273 106.516,372.499 106.516 C 372.724 106.516,372.909 106.424,372.909 106.311 C 372.909 106.198,372.724 106.106,372.499 106.106 C 372.273 106.106,372.088 106.198,372.088 106.311 M370.652 106.516 C 370.652 106.629,370.836 106.721,371.062 106.721 C 371.288 106.721,371.473 106.629,371.473 106.516 C 371.473 106.403,371.288 106.311,371.062 106.311 C 370.836 106.311,370.652 106.403,370.652 106.516 M367.778 107.132 C 367.778 107.245,367.963 107.337,368.189 107.337 C 368.415 107.337,368.599 107.245,368.599 107.132 C 368.599 107.019,368.415 106.927,368.189 106.927 C 367.963 106.927,367.778 107.019,367.778 107.132 M366.342 107.337 C 366.342 107.450,366.526 107.542,366.752 107.542 C 366.978 107.542,367.163 107.450,367.163 107.337 C 367.163 107.224,366.978 107.132,366.752 107.132 C 366.526 107.132,366.342 107.224,366.342 107.337 M363.058 107.953 C 363.058 108.066,363.243 108.158,363.468 108.158 C 363.694 108.158,363.879 108.066,363.879 107.953 C 363.879 107.840,363.694 107.748,363.468 107.748 C 363.243 107.748,363.058 107.840,363.058 107.953 M361.621 108.158 C 361.621 108.271,361.806 108.363,362.032 108.363 C 362.258 108.363,362.442 108.271,362.442 108.158 C 362.442 108.045,362.258 107.953,362.032 107.953 C 361.806 107.953,361.621 108.045,361.621 108.158 M360.371 108.379 C 360.161 108.512,360.236 108.563,360.646 108.565 C 361.259 108.569,361.370 108.468,360.936 108.302 C 360.784 108.244,360.530 108.278,360.371 108.379 M358.645 108.774 C 358.574 108.890,358.746 108.979,359.044 108.979 C 359.333 108.979,359.569 108.887,359.569 108.774 C 359.569 108.661,359.390 108.568,359.171 108.568 C 358.952 108.568,358.715 108.661,358.645 108.774 M357.311 108.979 C 357.311 109.092,357.496 109.184,357.722 109.184 C 357.948 109.184,358.132 109.092,358.132 108.979 C 358.132 108.866,357.948 108.774,357.722 108.774 C 357.496 108.774,357.311 108.866,357.311 108.979 M355.977 109.184 C 355.904 109.303,356.094 109.388,356.427 109.386 C 356.875 109.384,356.935 109.339,356.696 109.184 C 356.301 108.929,356.135 108.929,355.977 109.184 M354.438 109.595 C 354.438 109.708,354.571 109.800,354.734 109.800 C 354.897 109.800,355.087 109.708,355.156 109.595 C 355.226 109.482,355.093 109.389,354.861 109.389 C 354.628 109.389,354.438 109.482,354.438 109.595 M352.796 109.800 C 352.796 109.913,353.027 110.005,353.309 110.005 C 353.592 110.005,353.822 109.913,353.822 109.800 C 353.822 109.687,353.592 109.595,353.309 109.595 C 353.027 109.595,352.796 109.687,352.796 109.800 M350.026 110.416 C 350.095 110.528,350.286 110.621,350.448 110.621 C 350.611 110.621,350.744 110.528,350.744 110.416 C 350.744 110.303,350.554 110.210,350.321 110.210 C 350.089 110.210,349.956 110.303,350.026 110.416 M348.486 110.621 C 348.486 110.734,348.717 110.826,348.999 110.826 C 349.282 110.826,349.513 110.734,349.513 110.621 C 349.513 110.508,349.282 110.416,348.999 110.416 C 348.717 110.416,348.486 110.508,348.486 110.621 M347.152 110.826 C 347.083 110.939,347.221 111.031,347.460 111.031 C 347.699 111.031,347.838 110.939,347.768 110.826 C 347.698 110.713,347.560 110.621,347.460 110.621 C 347.361 110.621,347.222 110.713,347.152 110.826 M343.971 111.442 C 343.971 111.555,344.156 111.647,344.382 111.647 C 344.607 111.647,344.792 111.555,344.792 111.442 C 344.792 111.329,344.607 111.237,344.382 111.237 C 344.156 111.237,343.971 111.329,343.971 111.442 M342.637 111.647 C 342.565 111.764,342.742 111.852,343.048 111.852 C 343.354 111.852,343.530 111.764,343.458 111.647 C 343.388 111.534,343.204 111.442,343.048 111.442 C 342.892 111.442,342.707 111.534,342.637 111.647 M339.251 112.263 C 339.251 112.376,339.482 112.468,339.764 112.468 C 340.046 112.468,340.277 112.376,340.277 112.263 C 340.277 112.150,340.046 112.057,339.764 112.057 C 339.482 112.057,339.251 112.150,339.251 112.263 M337.917 112.468 C 337.847 112.581,337.986 112.673,338.225 112.673 C 338.464 112.673,338.602 112.581,338.533 112.468 C 338.463 112.355,338.324 112.263,338.225 112.263 C 338.125 112.263,337.987 112.355,337.917 112.468 M334.736 113.084 C 334.736 113.197,334.920 113.289,335.146 113.289 C 335.372 113.289,335.557 113.197,335.557 113.084 C 335.557 112.971,335.372 112.878,335.146 112.878 C 334.920 112.878,334.736 112.971,334.736 113.084 M333.402 113.289 C 333.332 113.402,333.465 113.494,333.697 113.494 C 333.930 113.494,334.120 113.402,334.120 113.289 C 334.120 113.176,333.987 113.084,333.824 113.084 C 333.662 113.084,333.472 113.176,333.402 113.289 M330.221 113.905 C 330.221 114.017,330.452 114.110,330.734 114.110 C 331.016 114.110,331.247 114.017,331.247 113.905 C 331.247 113.792,331.016 113.699,330.734 113.699 C 330.452 113.699,330.221 113.792,330.221 113.905 M328.681 114.110 C 328.609 114.227,328.786 114.315,329.092 114.315 C 329.398 114.315,329.575 114.227,329.502 114.110 C 329.433 113.997,329.248 113.905,329.092 113.905 C 328.936 113.905,328.751 113.997,328.681 114.110 M325.603 114.726 C 325.531 114.842,325.703 114.931,326.001 114.931 C 326.290 114.931,326.526 114.838,326.526 114.726 C 326.526 114.613,326.347 114.520,326.128 114.520 C 325.909 114.520,325.673 114.613,325.603 114.726 M324.166 114.931 C 324.096 115.044,324.230 115.136,324.462 115.136 C 324.694 115.136,324.885 115.044,324.885 114.931 C 324.885 114.818,324.751 114.726,324.589 114.726 C 324.426 114.726,324.236 114.818,324.166 114.931 M320.985 115.546 C 320.985 115.659,321.216 115.752,321.498 115.752 C 321.780 115.752,322.011 115.659,322.011 115.546 C 322.011 115.434,321.780 115.341,321.498 115.341 C 321.216 115.341,320.985 115.434,320.985 115.546 M319.446 115.752 C 319.374 115.869,319.550 115.957,319.856 115.957 C 320.162 115.957,320.339 115.869,320.267 115.752 C 320.197 115.639,320.012 115.546,319.856 115.546 C 319.700 115.546,319.516 115.639,319.446 115.752 M316.060 116.367 C 316.060 116.480,316.337 116.573,316.675 116.573 C 317.014 116.573,317.291 116.480,317.291 116.367 C 317.291 116.254,317.014 116.162,316.675 116.162 C 316.337 116.162,316.060 116.254,316.060 116.367 M314.520 116.573 C 314.448 116.689,314.625 116.778,314.931 116.778 C 315.237 116.778,315.413 116.689,315.341 116.573 C 315.271 116.460,315.087 116.367,314.931 116.367 C 314.775 116.367,314.590 116.460,314.520 116.573 M311.339 117.188 C 311.339 117.301,311.570 117.394,311.852 117.394 C 312.134 117.394,312.365 117.301,312.365 117.188 C 312.365 117.075,312.134 116.983,311.852 116.983 C 311.570 116.983,311.339 117.075,311.339 117.188 M309.800 117.394 C 309.728 117.510,309.904 117.599,310.210 117.599 C 310.516 117.599,310.693 117.510,310.621 117.394 C 310.551 117.281,310.366 117.188,310.210 117.188 C 310.054 117.188,309.870 117.281,309.800 117.394 M0.197 117.994 C 0.322 118.228,0.514 118.420,0.623 118.420 C 0.975 118.420,0.833 118.030,0.395 117.796 C 0.005 117.587,-0.012 117.604,0.197 117.994 M306.619 118.009 C 306.619 118.122,306.803 118.214,307.029 118.214 C 307.255 118.214,307.440 118.122,307.440 118.009 C 307.440 117.896,307.255 117.804,307.029 117.804 C 306.803 117.804,306.619 117.896,306.619 118.009 M305.080 118.214 C 305.010 118.327,305.143 118.420,305.375 118.420 C 305.608 118.420,305.798 118.327,305.798 118.214 C 305.798 118.102,305.665 118.009,305.502 118.009 C 305.339 118.009,305.149 118.102,305.080 118.214 M303.592 118.561 C 303.789 118.613,304.112 118.613,304.310 118.561 C 304.507 118.510,304.346 118.467,303.951 118.467 C 303.556 118.467,303.394 118.510,303.592 118.561 M301.898 118.830 C 301.898 118.943,302.129 119.035,302.411 119.035 C 302.694 119.035,302.925 118.943,302.925 118.830 C 302.925 118.717,302.694 118.625,302.411 118.625 C 302.129 118.625,301.898 118.717,301.898 118.830 M1.578 118.962 C 1.519 119.021,1.656 119.254,1.881 119.480 C 2.107 119.706,2.347 119.836,2.414 119.769 C 2.481 119.702,2.344 119.469,2.111 119.251 C 1.877 119.033,1.637 118.903,1.578 118.962 M300.359 119.035 C 300.287 119.152,300.464 119.241,300.770 119.241 C 301.076 119.241,301.252 119.152,301.180 119.035 C 301.110 118.923,300.926 118.830,300.770 118.830 C 300.614 118.830,300.429 118.923,300.359 119.035 M298.820 119.241 C 298.581 119.395,298.641 119.440,299.089 119.443 C 299.421 119.445,299.611 119.359,299.538 119.241 C 299.381 118.986,299.214 118.986,298.820 119.241 M296.973 119.651 C 296.973 119.764,297.204 119.856,297.486 119.856 C 297.768 119.856,297.999 119.764,297.999 119.651 C 297.999 119.538,297.768 119.446,297.486 119.446 C 297.204 119.446,296.973 119.538,296.973 119.651 M295.331 119.856 C 295.331 119.969,295.567 120.062,295.856 120.062 C 296.154 120.062,296.326 119.973,296.254 119.856 C 296.185 119.743,295.948 119.651,295.729 119.651 C 295.510 119.651,295.331 119.743,295.331 119.856 M2.998 120.352 C 3.066 120.531,3.213 120.677,3.323 120.677 C 3.593 120.677,3.424 120.211,3.117 120.109 C 2.967 120.059,2.921 120.152,2.998 120.352 M291.739 120.472 C 291.809 120.585,292.092 120.677,292.367 120.677 C 292.643 120.677,292.868 120.585,292.868 120.472 C 292.868 120.359,292.586 120.267,292.240 120.267 C 291.874 120.267,291.665 120.352,291.739 120.472 M290.200 120.677 C 290.200 120.790,290.436 120.883,290.725 120.883 C 291.023 120.883,291.196 120.794,291.124 120.677 C 291.054 120.564,290.818 120.472,290.598 120.472 C 290.379 120.472,290.200 120.564,290.200 120.677 M288.610 121.024 C 288.807 121.076,289.130 121.076,289.328 121.024 C 289.525 120.972,289.364 120.930,288.969 120.930 C 288.574 120.930,288.412 120.972,288.610 121.024 M286.916 121.293 C 286.916 121.406,287.147 121.498,287.429 121.498 C 287.712 121.498,287.943 121.406,287.943 121.293 C 287.943 121.180,287.712 121.088,287.429 121.088 C 287.147 121.088,286.916 121.180,286.916 121.293 M4.831 121.485 C 4.767 121.589,4.900 121.733,5.128 121.805 C 5.355 121.877,5.541 122.016,5.541 122.114 C 5.541 122.212,5.715 122.347,5.927 122.414 C 6.140 122.481,6.523 122.719,6.780 122.941 C 7.283 123.378,7.594 123.459,7.594 123.154 C 7.594 123.049,7.409 122.904,7.184 122.833 C 6.959 122.761,6.657 122.593,6.512 122.460 C 5.839 121.838,4.936 121.315,4.831 121.485 M285.274 121.498 C 285.274 121.611,285.505 121.703,285.788 121.703 C 286.070 121.703,286.301 121.611,286.301 121.498 C 286.301 121.385,286.070 121.293,285.788 121.293 C 285.505 121.293,285.274 121.385,285.274 121.498 M283.819 121.719 C 283.609 121.853,283.684 121.903,284.094 121.906 C 284.707 121.909,284.818 121.808,284.384 121.642 C 284.232 121.584,283.978 121.619,283.819 121.719 M281.786 122.114 C 281.786 122.227,281.970 122.319,282.196 122.319 C 282.422 122.319,282.606 122.227,282.606 122.114 C 282.606 122.001,282.422 121.909,282.196 121.909 C 281.970 121.909,281.786 122.001,281.786 122.114 M280.144 122.319 C 280.144 122.432,280.328 122.524,280.554 122.524 C 280.780 122.524,280.965 122.432,280.965 122.319 C 280.965 122.206,280.780 122.114,280.554 122.114 C 280.328 122.114,280.144 122.206,280.144 122.319 M276.655 122.935 C 276.655 123.048,276.880 123.140,277.156 123.140 C 277.431 123.140,277.714 123.048,277.783 122.935 C 277.857 122.815,277.649 122.730,277.283 122.730 C 276.937 122.730,276.655 122.822,276.655 122.935 M275.013 123.140 C 275.013 123.253,275.198 123.345,275.423 123.345 C 275.649 123.345,275.834 123.253,275.834 123.140 C 275.834 123.027,275.649 122.935,275.423 122.935 C 275.198 122.935,275.013 123.027,275.013 123.140 M273.371 123.345 C 273.132 123.500,273.192 123.545,273.640 123.547 C 273.972 123.549,274.162 123.464,274.089 123.345 C 273.932 123.090,273.765 123.090,273.371 123.345 M8.386 123.763 C 8.898 124.189,9.236 124.281,9.236 123.994 C 9.236 123.826,8.332 123.339,8.046 123.352 C 7.966 123.356,8.120 123.541,8.386 123.763 M271.524 123.756 C 271.524 123.869,271.755 123.961,272.037 123.961 C 272.319 123.961,272.550 123.869,272.550 123.756 C 272.550 123.643,272.319 123.551,272.037 123.551 C 271.755 123.551,271.524 123.643,271.524 123.756 M269.882 123.961 C 269.882 124.074,270.113 124.166,270.395 124.166 C 270.677 124.166,270.908 124.074,270.908 123.961 C 270.908 123.848,270.677 123.756,270.395 123.756 C 270.113 123.756,269.882 123.848,269.882 123.961 M268.035 124.166 C 267.796 124.321,267.856 124.366,268.304 124.368 C 268.636 124.370,268.826 124.285,268.753 124.166 C 268.596 123.911,268.429 123.911,268.035 124.166 M10.233 124.789 C 10.500 125.011,10.838 125.192,10.986 125.192 C 11.133 125.192,11.295 125.308,11.345 125.449 C 11.396 125.590,11.518 125.629,11.617 125.536 C 11.771 125.392,11.089 124.823,10.921 124.956 C 10.889 124.981,10.721 124.860,10.548 124.687 C 10.374 124.513,10.124 124.375,9.990 124.378 C 9.857 124.382,9.967 124.567,10.233 124.789 M265.983 124.577 C 265.983 124.690,266.167 124.782,266.393 124.782 C 266.619 124.782,266.803 124.690,266.803 124.577 C 266.803 124.464,266.619 124.371,266.393 124.371 C 266.167 124.371,265.983 124.464,265.983 124.577 M264.341 124.782 C 264.341 124.895,264.525 124.987,264.751 124.987 C 264.977 124.987,265.162 124.895,265.162 124.782 C 265.162 124.669,264.977 124.577,264.751 124.577 C 264.525 124.577,264.341 124.669,264.341 124.782 M262.596 124.987 C 262.526 125.100,262.665 125.192,262.904 125.192 C 263.143 125.192,263.282 125.100,263.212 124.987 C 263.142 124.874,263.004 124.782,262.904 124.782 C 262.804 124.782,262.666 124.874,262.596 124.987 M260.646 125.398 C 260.646 125.511,260.877 125.603,261.160 125.603 C 261.442 125.603,261.673 125.511,261.673 125.398 C 261.673 125.285,261.442 125.192,261.160 125.192 C 260.877 125.192,260.646 125.285,260.646 125.398 M11.904 125.581 C 11.904 125.682,12.050 125.820,12.228 125.889 C 12.669 126.058,12.724 126.048,12.724 125.796 C 12.724 125.676,12.632 125.636,12.519 125.705 C 12.406 125.775,12.314 125.735,12.314 125.615 C 12.314 125.495,12.222 125.398,12.109 125.398 C 11.996 125.398,11.904 125.480,11.904 125.581 M258.902 125.603 C 258.972 125.716,259.208 125.808,259.427 125.808 C 259.646 125.808,259.826 125.716,259.826 125.603 C 259.826 125.490,259.589 125.398,259.300 125.398 C 259.002 125.398,258.830 125.486,258.902 125.603 M257.363 125.808 C 257.124 125.963,257.184 126.008,257.631 126.010 C 257.964 126.012,258.154 125.927,258.081 125.808 C 257.924 125.553,257.757 125.553,257.363 125.808 M255.310 126.219 C 255.310 126.331,255.541 126.424,255.823 126.424 C 256.106 126.424,256.337 126.331,256.337 126.219 C 256.337 126.106,256.106 126.013,255.823 126.013 C 255.541 126.013,255.310 126.106,255.310 126.219 M13.545 126.420 C 13.545 126.531,13.776 126.679,14.058 126.750 C 14.341 126.821,14.572 126.971,14.572 127.084 C 14.572 127.196,14.710 127.235,14.879 127.171 C 15.049 127.106,15.187 127.142,15.187 127.251 C 15.187 127.361,15.280 127.450,15.393 127.450 C 15.505 127.450,15.598 127.367,15.598 127.265 C 15.598 127.080,14.400 126.544,14.110 126.600 C 14.025 126.616,13.956 126.537,13.956 126.424 C 13.956 126.311,13.864 126.219,13.751 126.219 C 13.638 126.219,13.545 126.309,13.545 126.420 M253.463 126.424 C 253.463 126.537,253.740 126.629,254.079 126.629 C 254.418 126.629,254.695 126.537,254.695 126.424 C 254.695 126.311,254.418 126.219,254.079 126.219 C 253.740 126.219,253.463 126.311,253.463 126.424 M251.821 126.629 C 251.582 126.784,251.638 126.829,252.078 126.831 C 252.388 126.833,252.642 126.742,252.642 126.629 C 252.642 126.370,252.223 126.370,251.821 126.629 M249.666 127.040 C 249.736 127.152,250.019 127.245,250.294 127.245 C 250.570 127.245,250.795 127.152,250.795 127.040 C 250.795 126.927,250.513 126.834,250.167 126.834 C 249.801 126.834,249.592 126.920,249.666 127.040 M247.717 127.245 C 247.717 127.358,247.994 127.450,248.332 127.450 C 248.671 127.450,248.948 127.358,248.948 127.245 C 248.948 127.132,248.671 127.040,248.332 127.040 C 247.994 127.040,247.717 127.132,247.717 127.245 M246.075 127.450 C 245.842 127.601,245.932 127.650,246.446 127.652 C 246.847 127.654,247.073 127.571,246.998 127.450 C 246.839 127.192,246.474 127.192,246.075 127.450 M16.714 127.946 C 17.177 128.323,17.371 128.351,17.547 128.066 C 17.617 127.953,17.538 127.860,17.371 127.860 C 17.204 127.860,16.899 127.807,16.692 127.741 C 16.348 127.632,16.350 127.649,16.714 127.946 M243.612 127.860 C 243.378 128.012,243.461 128.060,243.959 128.063 C 244.319 128.064,244.671 127.973,244.741 127.860 C 244.903 127.597,244.019 127.597,243.612 127.860 M241.868 128.066 C 241.937 128.179,242.220 128.271,242.495 128.271 C 242.771 128.271,242.996 128.179,242.996 128.066 C 242.996 127.953,242.714 127.860,242.369 127.860 C 242.002 127.860,241.794 127.946,241.868 128.066 M240.226 128.271 C 240.156 128.384,240.289 128.476,240.521 128.476 C 240.754 128.476,240.944 128.384,240.944 128.271 C 240.944 128.158,240.811 128.066,240.648 128.066 C 240.486 128.066,240.296 128.158,240.226 128.271 M236.018 128.887 C 236.018 128.999,236.296 129.092,236.634 129.092 C 236.973 129.092,237.250 128.999,237.250 128.887 C 237.250 128.774,236.973 128.681,236.634 128.681 C 236.296 128.681,236.018 128.774,236.018 128.887 M234.274 129.092 C 234.202 129.208,234.374 129.297,234.672 129.297 C 234.961 129.297,235.198 129.205,235.198 129.092 C 235.198 128.979,235.018 128.887,234.799 128.887 C 234.580 128.887,234.344 128.979,234.274 129.092 M230.067 129.708 C 230.067 129.820,230.344 129.913,230.682 129.913 C 231.021 129.913,231.298 129.820,231.298 129.708 C 231.298 129.595,231.021 129.502,230.682 129.502 C 230.344 129.502,230.067 129.595,230.067 129.708 M228.220 129.913 C 227.987 130.063,228.077 130.112,228.591 130.115 C 228.992 130.117,229.218 130.034,229.143 129.913 C 228.984 129.655,228.619 129.655,228.220 129.913 M226.219 130.259 C 226.416 130.311,226.739 130.311,226.937 130.259 C 227.134 130.208,226.973 130.166,226.578 130.166 C 226.183 130.166,226.021 130.208,226.219 130.259 M224.012 130.528 C 224.082 130.641,224.365 130.734,224.640 130.734 C 224.916 130.734,225.141 130.641,225.141 130.528 C 225.141 130.416,224.859 130.323,224.513 130.323 C 224.147 130.323,223.938 130.409,224.012 130.528 M222.165 130.734 C 222.091 130.854,222.304 130.939,222.678 130.939 C 223.053 130.939,223.266 130.854,223.191 130.734 C 223.122 130.621,222.891 130.528,222.678 130.528 C 222.466 130.528,222.235 130.621,222.165 130.734 M26.065 131.349 C 26.065 131.462,26.203 131.555,26.372 131.555 C 26.542 131.555,26.680 131.462,26.680 131.349 C 26.680 131.237,26.542 131.144,26.372 131.144 C 26.203 131.144,26.065 131.237,26.065 131.349 M217.342 131.349 C 217.342 131.462,217.619 131.555,217.958 131.555 C 218.297 131.555,218.574 131.462,218.574 131.349 C 218.574 131.237,218.297 131.144,217.958 131.144 C 217.619 131.144,217.342 131.237,217.342 131.349 M215.393 131.555 C 215.323 131.668,215.456 131.760,215.688 131.760 C 215.921 131.760,216.111 131.668,216.111 131.555 C 216.111 131.442,215.978 131.349,215.815 131.349 C 215.652 131.349,215.462 131.442,215.393 131.555 M28.733 132.170 C 28.733 132.283,28.871 132.376,29.041 132.376 C 29.210 132.376,29.348 132.283,29.348 132.170 C 29.348 132.057,29.210 131.965,29.041 131.965 C 28.871 131.965,28.733 132.057,28.733 132.170 M210.877 132.170 C 210.947 132.283,211.276 132.376,211.608 132.376 C 211.940 132.376,212.211 132.283,212.211 132.170 C 212.211 132.057,211.883 131.965,211.481 131.965 C 211.046 131.965,210.802 132.048,210.877 132.170 M29.554 132.376 C 29.554 132.488,29.744 132.581,29.976 132.581 C 30.209 132.581,30.342 132.488,30.272 132.376 C 30.202 132.263,30.012 132.170,29.849 132.170 C 29.687 132.170,29.554 132.263,29.554 132.376 M208.825 132.376 C 208.753 132.492,208.930 132.581,209.236 132.581 C 209.541 132.581,209.718 132.492,209.646 132.376 C 209.576 132.263,209.391 132.170,209.236 132.170 C 209.080 132.170,208.895 132.263,208.825 132.376 M206.721 132.722 C 206.919 132.774,207.242 132.774,207.440 132.722 C 207.637 132.671,207.476 132.628,207.081 132.628 C 206.685 132.628,206.524 132.671,206.721 132.722 M32.016 132.991 C 32.016 133.104,32.155 133.197,32.324 133.197 C 32.494 133.197,32.632 133.104,32.632 132.991 C 32.632 132.878,32.494 132.786,32.324 132.786 C 32.155 132.786,32.016 132.878,32.016 132.991 M204.207 132.991 C 204.207 133.104,204.438 133.197,204.720 133.197 C 205.003 133.197,205.233 133.104,205.233 132.991 C 205.233 132.878,205.003 132.786,204.720 132.786 C 204.438 132.786,204.207 132.878,204.207 132.991 M201.847 133.197 C 201.771 133.319,202.020 133.402,202.463 133.402 C 202.906 133.402,203.154 133.319,203.079 133.197 C 203.009 133.084,202.732 132.991,202.463 132.991 C 202.194 132.991,201.917 133.084,201.847 133.197 M199.848 133.547 C 200.104 133.596,200.473 133.594,200.669 133.543 C 200.866 133.491,200.657 133.451,200.205 133.454 C 199.754 133.456,199.593 133.498,199.848 133.547 M35.300 133.812 C 35.300 133.925,35.439 134.017,35.608 134.017 C 35.777 134.017,35.916 133.925,35.916 133.812 C 35.916 133.699,35.777 133.607,35.608 133.607 C 35.439 133.607,35.300 133.699,35.300 133.812 M196.819 133.812 C 196.819 133.925,197.188 134.017,197.640 134.017 C 198.091 134.017,198.461 133.925,198.461 133.812 C 198.461 133.699,198.091 133.607,197.640 133.607 C 197.188 133.607,196.819 133.699,196.819 133.812 M36.429 134.017 C 36.359 134.130,36.498 134.223,36.737 134.223 C 36.976 134.223,37.114 134.130,37.045 134.017 C 36.975 133.905,36.836 133.812,36.737 133.812 C 36.637 133.812,36.499 133.905,36.429 134.017 M194.459 134.017 C 194.383 134.140,194.632 134.223,195.074 134.223 C 195.517 134.223,195.766 134.140,195.690 134.017 C 195.620 133.905,195.343 133.812,195.074 133.812 C 194.806 133.812,194.528 133.905,194.459 134.017 M192.255 134.368 C 192.510 134.417,192.880 134.415,193.076 134.364 C 193.272 134.312,193.063 134.272,192.612 134.274 C 192.160 134.277,192.000 134.319,192.255 134.368 M38.789 134.633 C 38.789 134.746,38.974 134.838,39.200 134.838 C 39.425 134.838,39.610 134.746,39.610 134.633 C 39.610 134.520,39.425 134.428,39.200 134.428 C 38.974 134.428,38.789 134.520,38.789 134.633 M189.225 134.633 C 189.225 134.746,189.595 134.838,190.046 134.838 C 190.498 134.838,190.867 134.746,190.867 134.633 C 190.867 134.520,190.498 134.428,190.046 134.428 C 189.595 134.428,189.225 134.520,189.225 134.633 M186.865 134.838 C 186.789 134.961,187.038 135.044,187.481 135.044 C 187.924 135.044,188.172 134.961,188.096 134.838 C 188.027 134.726,187.750 134.633,187.481 134.633 C 187.212 134.633,186.935 134.726,186.865 134.838 M184.661 135.189 C 184.916 135.238,185.286 135.236,185.482 135.185 C 185.678 135.133,185.469 135.093,185.018 135.095 C 184.566 135.098,184.406 135.140,184.661 135.189 M42.689 135.454 C 42.689 135.567,42.868 135.659,43.087 135.659 C 43.306 135.659,43.542 135.567,43.612 135.454 C 43.684 135.338,43.512 135.249,43.214 135.249 C 42.925 135.249,42.689 135.341,42.689 135.454 M181.426 135.454 C 181.426 135.567,181.744 135.659,182.133 135.659 C 182.521 135.659,182.896 135.567,182.966 135.454 C 183.042 135.330,182.763 135.249,182.259 135.249 C 181.801 135.249,181.426 135.341,181.426 135.454 M44.330 135.659 C 44.330 135.772,44.521 135.865,44.753 135.865 C 44.985 135.865,45.119 135.772,45.049 135.659 C 44.979 135.546,44.789 135.454,44.626 135.454 C 44.464 135.454,44.330 135.546,44.330 135.659 M178.861 135.659 C 178.785 135.781,179.030 135.865,179.465 135.865 C 179.866 135.865,180.195 135.772,180.195 135.659 C 180.195 135.546,179.923 135.454,179.591 135.454 C 179.259 135.454,178.931 135.546,178.861 135.659 M176.452 136.010 C 176.707 136.059,177.077 136.057,177.273 136.006 C 177.469 135.954,177.260 135.914,176.809 135.916 C 176.357 135.919,176.197 135.961,176.452 136.010 M47.306 136.275 C 47.376 136.388,47.659 136.480,47.934 136.480 C 48.210 136.480,48.435 136.388,48.435 136.275 C 48.435 136.162,48.153 136.070,47.807 136.070 C 47.441 136.070,47.232 136.155,47.306 136.275 M172.601 136.275 C 172.601 136.388,173.017 136.480,173.525 136.480 C 174.033 136.480,174.448 136.388,174.448 136.275 C 174.448 136.162,174.033 136.070,173.525 136.070 C 173.017 136.070,172.601 136.162,172.601 136.275 M49.256 136.480 C 49.256 136.593,49.446 136.685,49.679 136.685 C 49.911 136.685,50.044 136.593,49.974 136.480 C 49.905 136.367,49.714 136.275,49.552 136.275 C 49.389 136.275,49.256 136.367,49.256 136.480 M169.831 136.480 C 169.755 136.602,170.000 136.685,170.434 136.685 C 170.836 136.685,171.165 136.593,171.165 136.480 C 171.165 136.367,170.893 136.275,170.561 136.275 C 170.229 136.275,169.900 136.367,169.831 136.480 M50.989 136.705 C 50.925 136.807,51.110 136.891,51.399 136.891 C 52.028 136.891,52.079 136.774,51.514 136.626 C 51.288 136.567,51.052 136.602,50.989 136.705 M167.368 136.700 C 166.803 136.830,166.824 136.844,167.624 136.866 C 168.494 136.891,168.726 136.807,168.240 136.643 C 168.099 136.596,167.707 136.621,167.368 136.700 M52.745 137.096 C 52.745 137.209,52.976 137.301,53.258 137.301 C 53.540 137.301,53.771 137.209,53.771 137.096 C 53.771 136.983,53.540 136.891,53.258 136.891 C 52.976 136.891,52.745 136.983,52.745 137.096 M163.468 137.096 C 163.391 137.221,163.706 137.301,164.277 137.301 C 164.792 137.301,165.213 137.209,165.213 137.096 C 165.213 136.983,164.849 136.891,164.404 136.891 C 163.959 136.891,163.538 136.983,163.468 137.096 M54.695 137.301 C 54.618 137.425,54.902 137.506,55.413 137.506 C 55.924 137.506,56.208 137.425,56.131 137.301 C 56.062 137.188,55.738 137.096,55.413 137.096 C 55.088 137.096,54.764 137.188,54.695 137.301 M160.390 137.301 C 160.313 137.425,160.593 137.506,161.096 137.506 C 161.554 137.506,161.929 137.414,161.929 137.301 C 161.929 137.188,161.611 137.096,161.223 137.096 C 160.835 137.096,160.460 137.188,160.390 137.301 M57.158 137.506 C 57.082 137.628,57.306 137.706,57.710 137.697 C 58.276 137.685,58.320 137.653,57.978 137.506 C 57.422 137.267,57.305 137.267,57.158 137.506 M157.311 137.506 C 156.776 137.643,156.829 137.666,157.722 137.684 C 158.454 137.699,158.660 137.648,158.440 137.506 C 158.271 137.397,158.086 137.317,158.030 137.329 C 157.973 137.340,157.650 137.420,157.311 137.506 M59.312 137.917 C 59.312 138.030,59.584 138.122,59.916 138.122 C 60.248 138.122,60.577 138.030,60.646 137.917 C 60.722 137.795,60.478 137.712,60.043 137.712 C 59.641 137.712,59.312 137.804,59.312 137.917 M153.207 137.917 C 153.277 138.030,153.744 138.122,154.245 138.122 C 154.746 138.122,155.156 138.030,155.156 137.917 C 155.156 137.804,154.689 137.712,154.118 137.712 C 153.478 137.712,153.129 137.790,153.207 137.917 M61.981 138.122 C 61.981 138.235,62.258 138.327,62.596 138.327 C 62.935 138.327,63.212 138.235,63.212 138.122 C 63.212 138.009,62.935 137.917,62.596 137.917 C 62.258 137.917,61.981 138.009,61.981 138.122 M149.102 138.122 C 149.023 138.250,149.446 138.327,150.231 138.327 C 151.016 138.327,151.439 138.250,151.360 138.122 C 151.290 138.009,150.782 137.917,150.231 137.917 C 149.680 137.917,149.172 138.009,149.102 138.122 M64.639 138.338 C 64.434 138.467,64.656 138.527,65.350 138.529 C 66.457 138.533,66.524 138.450,65.562 138.268 C 65.218 138.202,64.803 138.234,64.639 138.338 M145.613 138.327 C 144.842 138.465,144.868 138.476,146.024 138.500 C 146.886 138.519,147.163 138.467,146.947 138.327 C 146.778 138.218,146.593 138.140,146.537 138.154 C 146.480 138.169,146.065 138.247,145.613 138.327 M67.727 138.738 C 67.727 138.851,68.045 138.943,68.433 138.943 C 68.822 138.943,69.197 138.851,69.266 138.738 C 69.343 138.614,69.063 138.533,68.560 138.533 C 68.102 138.533,67.727 138.625,67.727 138.738 M140.482 138.738 C 140.552 138.851,141.112 138.943,141.726 138.943 C 142.340 138.943,142.842 138.851,142.842 138.738 C 142.842 138.624,142.291 138.533,141.599 138.533 C 140.822 138.533,140.403 138.610,140.482 138.738 M71.011 138.943 C 71.011 139.056,71.478 139.148,72.049 139.148 C 72.689 139.148,73.039 139.070,72.960 138.943 C 72.891 138.830,72.424 138.738,71.922 138.738 C 71.421 138.738,71.011 138.830,71.011 138.943 M135.762 138.943 C 135.682 139.072,136.136 139.148,136.981 139.148 C 137.742 139.148,138.327 139.059,138.327 138.943 C 138.327 138.829,137.784 138.738,137.108 138.738 C 136.437 138.738,135.832 138.830,135.762 138.943 M75.013 139.154 C 74.736 139.269,75.064 139.329,76.022 139.339 C 76.803 139.347,77.403 139.320,77.356 139.280 C 77.142 139.096,75.381 139.001,75.013 139.154 M130.939 139.148 C 130.150 139.271,130.255 139.294,131.657 139.308 C 132.741 139.319,133.160 139.265,132.889 139.148 C 132.423 138.948,132.227 138.948,130.939 139.148 M80.246 139.559 C 80.246 139.677,80.900 139.764,81.798 139.764 C 82.780 139.764,83.302 139.689,83.222 139.559 C 83.152 139.446,82.454 139.354,81.671 139.354 C 80.858 139.354,80.246 139.442,80.246 139.559 M122.935 139.559 C 122.724 139.695,123.260 139.759,124.628 139.761 C 125.827 139.763,126.629 139.682,126.629 139.559 C 126.629 139.293,123.347 139.293,122.935 139.559 M86.814 139.764 C 86.814 139.890,87.810 139.969,89.391 139.969 C 91.057 139.969,91.924 139.897,91.842 139.764 C 91.769 139.646,90.677 139.559,89.264 139.559 C 87.767 139.559,86.814 139.639,86.814 139.764 M112.878 139.764 C 112.878 139.891,113.939 139.969,115.649 139.969 C 117.359 139.969,118.420 139.891,118.420 139.764 C 118.420 139.637,117.359 139.559,115.649 139.559 C 113.939 139.559,112.878 139.637,112.878 139.764 " stroke="none" fill="#c9e7fc" fill-rule="evenodd"></path><path id="path2" d="M0.205 13.751 C 0.205 14.572,0.293 15.187,0.410 15.187 C 0.528 15.187,0.616 14.572,0.616 13.751 C 0.616 12.930,0.528 12.314,0.410 12.314 C 0.293 12.314,0.205 12.930,0.205 13.751 M394.972 101.796 C 394.822 102.039,395.023 102.039,395.587 101.796 C 395.983 101.626,395.982 101.619,395.548 101.605 C 395.301 101.597,395.042 101.683,394.972 101.796 M390.764 102.588 C 390.764 102.685,390.995 102.721,391.278 102.667 C 391.560 102.613,391.791 102.533,391.791 102.490 C 391.791 102.447,391.560 102.411,391.278 102.411 C 390.995 102.411,390.764 102.491,390.764 102.588 M387.481 103.232 C 387.481 103.490,387.699 103.490,388.096 103.232 C 388.345 103.072,388.316 103.033,387.943 103.030 C 387.689 103.029,387.481 103.120,387.481 103.232 M380.388 104.560 C 380.028 104.833,380.024 104.862,380.349 104.868 C 380.546 104.871,380.708 104.788,380.708 104.683 C 380.708 104.578,380.916 104.452,381.170 104.403 C 381.590 104.322,381.594 104.312,381.209 104.287 C 380.977 104.271,380.607 104.394,380.388 104.560 M376.199 105.277 C 375.710 105.586,376.044 105.651,376.603 105.356 C 376.886 105.207,376.978 105.086,376.809 105.086 C 376.639 105.086,376.365 105.172,376.199 105.277 M373.217 105.900 C 373.067 106.143,373.268 106.143,373.833 105.900 C 374.228 105.730,374.227 105.724,373.794 105.710 C 373.546 105.702,373.287 105.788,373.217 105.900 M371.889 106.098 C 371.723 106.203,371.659 106.360,371.746 106.448 C 371.834 106.535,371.970 106.508,372.048 106.387 C 372.127 106.266,372.329 106.115,372.499 106.050 C 372.772 105.946,372.772 105.931,372.499 105.920 C 372.329 105.913,372.055 105.993,371.889 106.098 M367.579 106.919 C 367.413 107.024,367.349 107.181,367.436 107.269 C 367.524 107.356,367.660 107.329,367.738 107.208 C 367.817 107.087,368.019 106.935,368.189 106.871 C 368.462 106.767,368.462 106.752,368.189 106.741 C 368.019 106.734,367.745 106.814,367.579 106.919 M362.859 107.740 C 362.693 107.845,362.628 108.002,362.716 108.090 C 362.803 108.177,362.939 108.150,363.018 108.029 C 363.096 107.908,363.299 107.756,363.468 107.692 C 363.742 107.588,363.742 107.573,363.468 107.562 C 363.299 107.554,363.025 107.635,362.859 107.740 M358.549 108.560 C 358.060 108.869,358.393 108.935,358.953 108.640 C 359.236 108.491,359.328 108.369,359.159 108.369 C 358.989 108.369,358.715 108.455,358.549 108.560 M354.122 109.403 C 353.943 109.693,354.214 109.955,354.398 109.671 C 354.477 109.550,354.679 109.398,354.849 109.334 C 355.058 109.254,355.013 109.211,354.707 109.200 C 354.460 109.191,354.196 109.283,354.122 109.403 M349.769 110.141 C 349.406 110.288,349.450 110.621,349.833 110.621 C 350.009 110.621,350.099 110.535,350.035 110.430 C 349.970 110.325,350.126 110.200,350.382 110.150 C 350.767 110.076,350.776 110.059,350.436 110.049 C 350.210 110.043,349.910 110.084,349.769 110.141 M345.305 111.031 C 345.155 111.274,345.356 111.274,345.921 111.031 C 346.317 110.861,346.315 110.854,345.882 110.840 C 345.634 110.833,345.375 110.918,345.305 111.031 M340.688 111.862 C 340.463 112.014,340.546 112.033,340.995 111.932 C 341.750 111.763,341.914 111.646,341.389 111.650 C 341.172 111.652,340.857 111.747,340.688 111.862 M326.834 114.315 C 326.684 114.558,326.885 114.558,327.450 114.315 C 327.846 114.145,327.844 114.138,327.411 114.124 C 327.163 114.116,326.904 114.202,326.834 114.315 M317.594 115.965 C 317.507 116.105,317.662 116.131,318.043 116.039 C 318.830 115.850,318.904 115.752,318.261 115.752 C 317.966 115.752,317.666 115.848,317.594 115.965 M312.673 116.778 C 312.523 117.021,312.724 117.021,313.289 116.778 C 313.685 116.608,313.683 116.601,313.250 116.587 C 313.002 116.579,312.743 116.665,312.673 116.778 M307.976 117.562 C 307.919 117.654,308.144 117.690,308.477 117.641 C 308.809 117.592,309.082 117.516,309.082 117.473 C 309.082 117.316,308.077 117.397,307.976 117.562 M1.071 118.620 C 1.329 119.034,1.642 119.176,1.642 118.880 C 1.642 118.794,1.455 118.607,1.227 118.464 C 0.842 118.224,0.830 118.235,1.071 118.620 M2.342 119.548 C 2.604 119.831,2.919 120.062,3.044 120.062 C 3.168 120.062,3.368 120.246,3.489 120.472 C 3.610 120.698,3.839 120.883,3.999 120.883 C 4.159 120.883,4.380 121.043,4.490 121.240 C 4.600 121.437,4.758 121.529,4.842 121.445 C 4.926 121.361,4.956 121.265,4.909 121.230 C 4.861 121.196,4.210 120.688,3.460 120.101 C 1.967 118.934,1.608 118.757,2.342 119.548 M293.376 120.070 C 293.290 120.210,293.444 120.235,293.826 120.144 C 294.612 119.955,294.687 119.856,294.043 119.856 C 293.749 119.856,293.449 119.952,293.376 120.070 M288.148 120.847 C 288.148 120.940,288.425 120.976,288.763 120.926 C 289.102 120.877,289.379 120.800,289.379 120.757 C 289.379 120.713,289.102 120.677,288.763 120.677 C 288.425 120.677,288.148 120.754,288.148 120.847 M286.717 121.080 C 286.551 121.185,286.487 121.342,286.574 121.430 C 286.662 121.517,286.798 121.490,286.876 121.369 C 286.955 121.248,287.158 121.097,287.327 121.032 C 287.600 120.928,287.600 120.913,287.327 120.902 C 287.158 120.895,286.883 120.975,286.717 121.080 M283.222 121.703 C 283.222 121.961,283.440 121.961,283.838 121.703 C 284.087 121.543,284.057 121.504,283.684 121.501 C 283.430 121.500,283.222 121.591,283.222 121.703 M281.586 121.901 C 281.420 122.006,281.356 122.163,281.443 122.251 C 281.531 122.338,281.667 122.308,281.745 122.183 C 281.824 122.058,282.073 121.910,282.299 121.854 L 282.709 121.751 282.299 121.730 C 282.073 121.719,281.752 121.796,281.586 121.901 M277.991 122.521 C 277.913 122.648,278.120 122.675,278.543 122.594 C 279.450 122.422,279.529 122.319,278.753 122.319 C 278.403 122.319,278.059 122.410,277.991 122.521 M271.325 123.543 C 271.159 123.648,271.094 123.805,271.182 123.893 C 271.269 123.980,271.405 123.950,271.484 123.825 C 271.562 123.700,271.811 123.552,272.037 123.495 L 272.447 123.393 272.037 123.372 C 271.811 123.361,271.491 123.438,271.325 123.543 M265.783 124.363 C 265.617 124.468,265.553 124.626,265.640 124.714 C 265.728 124.801,265.864 124.771,265.942 124.646 C 266.021 124.521,266.270 124.373,266.496 124.316 L 266.906 124.214 266.496 124.193 C 266.270 124.182,265.949 124.258,265.783 124.363 M261.981 124.987 C 261.911 125.100,261.992 125.192,262.162 125.192 C 262.331 125.192,262.526 125.100,262.596 124.987 C 262.666 124.874,262.585 124.782,262.415 124.782 C 262.246 124.782,262.050 124.874,261.981 124.987 M260.447 125.184 C 260.281 125.289,260.217 125.447,260.304 125.534 C 260.392 125.622,260.528 125.590,260.606 125.464 C 260.685 125.337,260.980 125.191,261.262 125.138 L 261.775 125.043 261.262 125.018 C 260.980 125.005,260.613 125.079,260.447 125.184 M12.724 125.801 C 12.724 125.918,12.855 126.013,13.015 126.013 C 13.175 126.013,13.353 126.129,13.409 126.270 C 13.488 126.463,13.517 126.465,13.529 126.277 C 13.538 126.140,13.361 125.929,13.135 125.808 C 12.857 125.659,12.724 125.657,12.724 125.801 M256.747 125.808 C 256.747 126.065,256.965 126.065,257.363 125.808 C 257.612 125.647,257.582 125.609,257.209 125.606 C 256.955 125.604,256.747 125.695,256.747 125.808 M255.111 126.005 C 254.945 126.110,254.881 126.268,254.968 126.355 C 255.056 126.443,255.192 126.412,255.270 126.288 C 255.349 126.163,255.598 126.015,255.823 125.958 L 256.234 125.856 255.823 125.835 C 255.598 125.824,255.277 125.900,255.111 126.005 M251.206 126.629 C 251.206 126.886,251.424 126.886,251.821 126.629 C 252.070 126.468,252.041 126.429,251.668 126.427 C 251.414 126.425,251.206 126.516,251.206 126.629 M249.393 126.809 C 249.174 126.948,249.186 127.008,249.455 127.111 C 249.639 127.182,249.738 127.155,249.673 127.050 C 249.609 126.946,249.858 126.823,250.227 126.778 L 250.898 126.695 250.282 126.665 C 249.944 126.649,249.543 126.713,249.393 126.809 M16.111 127.404 C 16.224 127.517,16.547 127.676,16.829 127.758 C 17.171 127.857,17.274 127.838,17.137 127.701 C 17.024 127.588,16.701 127.429,16.419 127.347 C 16.077 127.248,15.974 127.267,16.111 127.404 M245.254 127.450 C 245.254 127.709,245.673 127.709,246.075 127.450 C 246.315 127.295,246.258 127.250,245.818 127.248 C 245.508 127.246,245.254 127.337,245.254 127.450 M243.504 127.663 C 243.418 127.803,243.573 127.829,243.954 127.737 C 244.740 127.548,244.815 127.450,244.172 127.450 C 243.877 127.450,243.577 127.546,243.504 127.663 M17.855 128.134 C 17.855 128.187,18.153 128.335,18.518 128.462 C 18.882 128.589,19.090 128.608,18.979 128.505 C 18.746 128.286,17.855 127.993,17.855 128.134 M239.610 128.271 C 239.540 128.384,239.622 128.476,239.791 128.476 C 239.960 128.476,240.156 128.384,240.226 128.271 C 240.296 128.158,240.214 128.066,240.045 128.066 C 239.875 128.066,239.680 128.158,239.610 128.271 M237.866 128.479 C 237.649 128.621,237.771 128.642,238.276 128.549 C 239.161 128.387,239.328 128.270,238.669 128.274 C 238.397 128.276,238.035 128.368,237.866 128.479 M233.658 129.092 C 233.589 129.205,233.670 129.297,233.839 129.297 C 234.009 129.297,234.204 129.205,234.274 129.092 C 234.344 128.979,234.262 128.887,234.093 128.887 C 233.924 128.887,233.728 128.979,233.658 129.092 M231.806 129.305 C 231.720 129.445,231.874 129.471,232.256 129.379 C 233.042 129.190,233.117 129.092,232.473 129.092 C 232.179 129.092,231.879 129.188,231.806 129.305 M229.451 129.708 C 229.451 129.820,229.590 129.913,229.759 129.913 C 229.928 129.913,230.067 129.820,230.067 129.708 C 230.067 129.595,229.928 129.502,229.759 129.502 C 229.590 129.502,229.451 129.595,229.451 129.708 M22.476 129.918 C 22.612 130.138,23.397 130.313,23.397 130.123 C 23.397 130.034,23.169 129.917,22.890 129.864 C 22.611 129.810,22.425 129.835,22.476 129.918 M227.604 129.913 C 227.604 130.170,227.822 130.170,228.220 129.913 C 228.469 129.752,228.439 129.713,228.066 129.711 C 227.812 129.709,227.604 129.800,227.604 129.913 M225.757 130.121 C 225.540 130.263,225.662 130.284,226.167 130.191 C 227.052 130.028,227.219 129.912,226.561 129.916 C 226.288 129.918,225.926 130.010,225.757 130.121 M221.242 130.734 C 221.242 130.847,221.421 130.939,221.640 130.939 C 221.859 130.939,222.095 130.847,222.165 130.734 C 222.237 130.617,222.065 130.528,221.767 130.528 C 221.478 130.528,221.242 130.621,221.242 130.734 M219.189 130.939 C 218.797 131.192,219.219 131.192,220.010 130.939 L 220.523 130.775 220.010 130.757 C 219.728 130.748,219.359 130.830,219.189 130.939 M214.674 131.555 C 214.674 131.668,214.807 131.760,214.970 131.760 C 215.133 131.760,215.323 131.668,215.393 131.555 C 215.462 131.442,215.329 131.349,215.097 131.349 C 214.864 131.349,214.674 131.442,214.674 131.555 M212.719 131.768 C 212.633 131.908,212.788 131.933,213.169 131.842 C 213.955 131.653,214.030 131.555,213.386 131.555 C 213.092 131.555,212.792 131.651,212.719 131.768 M208.209 132.376 C 208.140 132.488,208.221 132.581,208.390 132.581 C 208.560 132.581,208.755 132.488,208.825 132.376 C 208.895 132.263,208.813 132.170,208.644 132.170 C 208.475 132.170,208.279 132.263,208.209 132.376 M206.165 132.569 C 206.093 132.684,206.358 132.713,206.819 132.642 C 207.850 132.483,207.933 132.376,207.024 132.376 C 206.617 132.376,206.230 132.462,206.165 132.569 M203.592 132.991 C 203.592 133.104,203.730 133.197,203.899 133.197 C 204.069 133.197,204.207 133.104,204.207 132.991 C 204.207 132.878,204.069 132.786,203.899 132.786 C 203.730 132.786,203.592 132.878,203.592 132.991 M201.231 133.197 C 201.162 133.309,201.243 133.402,201.412 133.402 C 201.582 133.402,201.777 133.309,201.847 133.197 C 201.917 133.084,201.835 132.991,201.666 132.991 C 201.497 132.991,201.301 133.084,201.231 133.197 M199.187 133.390 C 199.115 133.505,199.380 133.534,199.841 133.463 C 200.872 133.304,200.955 133.197,200.046 133.197 C 199.639 133.197,199.252 133.283,199.187 133.390 M196.203 133.812 C 196.203 133.925,196.342 134.017,196.511 134.017 C 196.680 134.017,196.819 133.925,196.819 133.812 C 196.819 133.699,196.680 133.607,196.511 133.607 C 196.342 133.607,196.203 133.699,196.203 133.812 M37.558 134.096 C 37.558 134.139,37.789 134.219,38.071 134.273 C 38.353 134.327,38.584 134.291,38.584 134.194 C 38.584 134.097,38.353 134.017,38.071 134.017 C 37.789 134.017,37.558 134.053,37.558 134.096 M191.597 134.203 C 191.532 134.309,191.857 134.341,192.355 134.278 C 193.511 134.130,193.597 134.017,192.555 134.017 C 192.092 134.017,191.661 134.101,191.597 134.203 M186.147 134.838 C 186.147 134.951,186.280 135.044,186.442 135.044 C 186.605 135.044,186.795 134.951,186.865 134.838 C 186.935 134.726,186.802 134.633,186.569 134.633 C 186.337 134.633,186.147 134.726,186.147 134.838 M41.457 134.917 C 41.457 134.960,41.688 135.040,41.970 135.094 C 42.252 135.148,42.483 135.112,42.483 135.015 C 42.483 134.918,42.252 134.838,41.970 134.838 C 41.688 134.838,41.457 134.874,41.457 134.917 M183.784 135.048 C 183.698 135.187,183.956 135.212,184.541 135.123 C 185.714 134.943,185.793 134.838,184.756 134.838 C 184.293 134.838,183.855 134.933,183.784 135.048 M180.811 135.454 C 180.811 135.567,180.949 135.659,181.119 135.659 C 181.288 135.659,181.426 135.567,181.426 135.454 C 181.426 135.341,181.288 135.249,181.119 135.249 C 180.949 135.249,180.811 135.341,180.811 135.454 M178.143 135.659 C 178.143 135.772,178.276 135.865,178.438 135.865 C 178.601 135.865,178.791 135.772,178.861 135.659 C 178.931 135.546,178.798 135.454,178.565 135.454 C 178.333 135.454,178.143 135.546,178.143 135.659 M46.280 135.865 C 46.845 136.107,47.046 136.107,46.896 135.865 C 46.826 135.752,46.567 135.666,46.319 135.674 C 45.886 135.688,45.884 135.694,46.280 135.865 M175.475 135.873 C 175.260 136.017,175.509 136.038,176.296 135.944 C 176.916 135.870,177.463 135.775,177.510 135.734 C 177.717 135.553,175.751 135.687,175.475 135.873 M173.268 136.006 C 173.466 136.058,173.789 136.058,173.987 136.006 C 174.184 135.954,174.023 135.912,173.628 135.912 C 173.232 135.912,173.071 135.954,173.268 136.006 M171.986 136.275 C 171.986 136.388,172.124 136.480,172.293 136.480 C 172.463 136.480,172.601 136.388,172.601 136.275 C 172.601 136.162,172.463 136.070,172.293 136.070 C 172.124 136.070,171.986 136.162,171.986 136.275 M169.112 136.480 C 169.112 136.593,169.245 136.685,169.408 136.685 C 169.571 136.685,169.761 136.593,169.831 136.480 C 169.900 136.367,169.767 136.275,169.535 136.275 C 169.303 136.275,169.112 136.367,169.112 136.480 M51.616 136.685 C 52.181 136.928,52.382 136.928,52.232 136.685 C 52.162 136.573,51.903 136.487,51.655 136.495 C 51.222 136.509,51.220 136.515,51.616 136.685 M166.136 136.685 C 165.993 136.917,166.457 136.917,167.368 136.685 C 167.949 136.537,167.936 136.527,167.123 136.505 C 166.650 136.491,166.206 136.573,166.136 136.685 M162.750 137.096 C 162.750 137.209,162.883 137.301,163.046 137.301 C 163.209 137.301,163.399 137.209,163.468 137.096 C 163.538 136.983,163.405 136.891,163.173 136.891 C 162.940 136.891,162.750 136.983,162.750 137.096 M159.569 137.301 C 159.499 137.414,159.627 137.506,159.853 137.506 C 160.078 137.506,160.320 137.414,160.390 137.301 C 160.460 137.188,160.332 137.096,160.106 137.096 C 159.881 137.096,159.639 137.188,159.569 137.301 M57.978 137.506 C 58.592 137.770,59.105 137.770,58.697 137.506 C 58.527 137.397,58.204 137.313,57.978 137.319 L 57.568 137.330 57.978 137.506 M156.183 137.506 C 155.804 137.751,156.349 137.751,157.311 137.506 L 157.927 137.350 157.209 137.329 C 156.814 137.317,156.352 137.397,156.183 137.506 M153.876 137.652 C 154.131 137.701,154.501 137.699,154.697 137.647 C 154.893 137.596,154.684 137.556,154.233 137.558 C 153.781 137.560,153.621 137.602,153.876 137.652 M60.646 137.917 C 60.577 138.030,60.710 138.122,60.942 138.122 C 61.175 138.122,61.365 138.030,61.365 137.917 C 61.365 137.804,61.232 137.712,61.069 137.712 C 60.906 137.712,60.716 137.804,60.646 137.917 M152.386 137.917 C 152.456 138.030,152.697 138.122,152.923 138.122 C 153.149 138.122,153.277 138.030,153.207 137.917 C 153.137 137.804,152.895 137.712,152.669 137.712 C 152.444 137.712,152.316 137.804,152.386 137.917 M63.212 138.122 C 63.212 138.235,63.350 138.327,63.520 138.327 C 63.689 138.327,63.828 138.235,63.828 138.122 C 63.828 138.009,63.689 137.917,63.520 137.917 C 63.350 137.917,63.212 138.009,63.212 138.122 M148.179 138.122 C 148.179 138.235,148.358 138.327,148.577 138.327 C 148.796 138.327,149.032 138.235,149.102 138.122 C 149.174 138.006,149.002 137.917,148.704 137.917 C 148.415 137.917,148.179 138.009,148.179 138.122 M65.281 138.198 C 65.521 138.408,66.935 138.541,66.812 138.340 C 66.737 138.220,66.343 138.122,65.936 138.122 C 65.529 138.122,65.234 138.156,65.281 138.198 M144.074 138.340 C 143.856 138.489,144.127 138.510,144.997 138.413 C 145.675 138.338,146.267 138.241,146.314 138.199 C 146.520 138.014,144.351 138.150,144.074 138.340 M68.189 138.469 C 68.386 138.520,68.710 138.520,68.907 138.469 C 69.105 138.417,68.943 138.375,68.548 138.375 C 68.153 138.375,67.991 138.417,68.189 138.469 M141.255 138.475 C 141.567 138.522,142.028 138.521,142.281 138.472 C 142.533 138.423,142.278 138.385,141.714 138.386 C 141.149 138.388,140.943 138.427,141.255 138.475 M69.266 138.738 C 69.197 138.851,69.330 138.943,69.562 138.943 C 69.794 138.943,69.985 138.851,69.985 138.738 C 69.985 138.625,69.852 138.533,69.689 138.533 C 69.526 138.533,69.336 138.625,69.266 138.738 M139.354 138.738 C 139.354 138.851,139.636 138.943,139.981 138.943 C 140.348 138.943,140.556 138.858,140.482 138.738 C 140.413 138.625,140.130 138.533,139.854 138.533 C 139.579 138.533,139.354 138.625,139.354 138.738 M72.960 138.943 C 73.030 139.056,73.267 139.148,73.486 139.148 C 73.705 139.148,73.884 139.056,73.884 138.943 C 73.884 138.830,73.648 138.738,73.359 138.738 C 73.061 138.738,72.889 138.827,72.960 138.943 M134.428 138.943 C 134.428 139.056,134.700 139.148,135.031 139.148 C 135.363 139.148,135.692 139.056,135.762 138.943 C 135.837 138.821,135.593 138.738,135.158 138.738 C 134.757 138.738,134.428 138.830,134.428 138.943 M76.757 139.159 C 78.119 139.401,78.784 139.397,78.399 139.148 C 78.230 139.039,77.583 138.959,76.963 138.972 L 75.834 138.994 76.757 139.159 M128.784 139.148 C 128.245 139.380,129.376 139.385,130.836 139.158 L 131.862 138.998 130.528 138.985 C 129.795 138.978,129.010 139.051,128.784 139.148 M81.020 139.297 C 81.388 139.343,81.943 139.342,82.251 139.295 C 82.559 139.248,82.258 139.211,81.580 139.212 C 80.903 139.213,80.651 139.251,81.020 139.297 M124.012 139.298 C 124.436 139.342,125.128 139.342,125.552 139.298 C 125.975 139.254,125.629 139.217,124.782 139.217 C 123.935 139.217,123.589 139.254,124.012 139.298 M83.222 139.559 C 83.292 139.672,83.713 139.764,84.158 139.764 C 84.603 139.764,84.967 139.672,84.967 139.559 C 84.967 139.446,84.546 139.354,84.031 139.354 C 83.459 139.354,83.145 139.433,83.222 139.559 M120.780 139.559 C 120.614 139.827,122.520 139.827,122.935 139.559 C 123.154 139.417,122.905 139.359,122.075 139.357 C 121.432 139.355,120.850 139.446,120.780 139.559 M91.842 139.764 C 91.913 139.879,92.802 139.963,93.855 139.955 C 95.100 139.945,95.602 139.880,95.331 139.764 C 94.738 139.509,91.685 139.509,91.842 139.764 M109.184 139.764 C 108.690 139.868,109.155 139.924,110.672 139.942 C 112.024 139.959,112.878 139.890,112.878 139.764 C 112.878 139.530,110.295 139.530,109.184 139.764 " stroke="none" fill="#8ad2fc" fill-rule="evenodd"></path><path id="path3" d="M366.752 106.911 L 366.034 107.046 366.665 107.151 C 367.043 107.214,367.396 107.149,367.545 106.988 C 367.682 106.842,367.722 106.734,367.633 106.748 C 367.543 106.763,367.147 106.836,366.752 106.911 M361.211 108.055 C 361.034 108.268,361.027 108.363,361.186 108.363 C 361.312 108.363,361.416 108.277,361.416 108.172 C 361.416 108.066,361.670 107.942,361.981 107.895 L 362.545 107.809 362.006 107.778 C 361.709 107.761,361.351 107.886,361.211 108.055 M352.523 109.526 C 352.447 109.602,352.387 109.763,352.389 109.885 C 352.391 110.033,352.443 110.029,352.543 109.872 C 352.626 109.742,352.925 109.593,353.207 109.541 L 353.720 109.445 353.190 109.417 C 352.898 109.402,352.598 109.451,352.523 109.526 M348.897 110.210 C 348.187 110.360,348.186 110.362,348.794 110.385 C 349.133 110.399,349.548 110.320,349.718 110.210 C 350.060 109.990,349.946 109.990,348.897 110.210 M343.698 111.168 C 343.622 111.243,343.562 111.405,343.564 111.527 C 343.566 111.675,343.618 111.671,343.718 111.514 C 343.801 111.384,344.100 111.235,344.382 111.183 L 344.895 111.087 344.365 111.059 C 344.073 111.044,343.773 111.093,343.698 111.168 M334.249 112.836 C 334.194 112.925,334.466 112.961,334.853 112.916 C 335.240 112.870,335.557 112.797,335.557 112.753 C 335.557 112.599,334.349 112.675,334.249 112.836 M330.631 113.494 L 329.913 113.645 330.670 113.672 C 331.087 113.687,331.485 113.607,331.555 113.494 C 331.692 113.271,331.689 113.271,330.631 113.494 M325.227 114.452 C 325.151 114.527,325.091 114.689,325.093 114.811 C 325.095 114.961,325.145 114.958,325.247 114.801 C 325.330 114.673,325.582 114.522,325.808 114.465 C 326.205 114.366,326.205 114.362,325.791 114.339 C 325.556 114.326,325.302 114.377,325.227 114.452 M320.506 115.273 C 320.431 115.348,320.371 115.510,320.373 115.632 C 320.375 115.778,320.428 115.773,320.527 115.616 C 320.610 115.485,320.955 115.338,321.294 115.288 L 321.909 115.197 321.276 115.167 C 320.928 115.150,320.581 115.198,320.506 115.273 M315.581 116.094 C 315.505 116.169,315.445 116.331,315.447 116.453 C 315.449 116.603,315.499 116.600,315.601 116.442 C 315.684 116.314,315.936 116.163,316.162 116.107 C 316.559 116.008,316.559 116.004,316.145 115.981 C 315.910 115.968,315.656 116.018,315.581 116.094 M0.513 117.785 C 0.937 118.274,2.052 119.134,2.052 118.971 C 2.052 118.921,1.614 118.527,1.077 118.095 C 0.541 117.664,0.287 117.525,0.513 117.785 M10.056 124.313 C 10.226 124.376,10.549 124.512,10.775 124.616 C 11.179 124.802,11.179 124.799,10.787 124.485 C 10.568 124.310,10.244 124.174,10.069 124.182 C 9.792 124.196,9.791 124.214,10.056 124.313 M253.515 126.155 C 253.712 126.206,254.035 126.206,254.233 126.155 C 254.430 126.103,254.269 126.061,253.874 126.061 C 253.479 126.061,253.317 126.103,253.515 126.155 M15.187 126.827 C 15.187 126.944,15.318 127.040,15.478 127.040 C 15.638 127.040,15.815 127.155,15.872 127.296 C 15.950 127.489,15.980 127.491,15.992 127.303 C 16.001 127.166,15.823 126.955,15.598 126.834 C 15.319 126.685,15.187 126.683,15.187 126.827 M249.085 126.766 C 248.836 127.015,248.943 127.245,249.307 127.242 C 249.588 127.239,249.606 127.200,249.387 127.061 C 249.151 126.912,249.151 126.867,249.387 126.773 C 249.541 126.712,249.566 126.654,249.444 126.645 C 249.322 126.636,249.160 126.691,249.085 126.766 M247.768 126.976 C 247.966 127.027,248.289 127.027,248.486 126.976 C 248.684 126.924,248.522 126.882,248.127 126.882 C 247.732 126.882,247.571 126.924,247.768 126.976 M241.816 127.797 C 242.014 127.848,242.337 127.848,242.535 127.797 C 242.732 127.745,242.571 127.703,242.175 127.703 C 241.780 127.703,241.619 127.745,241.816 127.797 M235.540 128.613 C 235.464 128.688,235.404 128.850,235.406 128.972 C 235.408 129.117,235.462 129.110,235.562 128.955 C 235.646 128.823,236.037 128.676,236.431 128.628 L 237.147 128.542 236.412 128.509 C 236.007 128.491,235.615 128.538,235.540 128.613 M230.018 129.442 C 230.273 129.491,230.642 129.489,230.839 129.438 C 231.035 129.387,230.826 129.347,230.375 129.349 C 229.923 129.351,229.762 129.393,230.018 129.442 M23.397 130.125 C 23.397 130.234,23.574 130.323,23.790 130.323 C 24.006 130.323,24.230 130.418,24.288 130.534 C 24.345 130.649,24.371 130.635,24.346 130.502 C 24.288 130.200,23.397 129.846,23.397 130.125 M224.066 130.263 C 224.321 130.312,224.691 130.310,224.887 130.259 C 225.083 130.208,224.874 130.167,224.423 130.170 C 223.971 130.172,223.811 130.214,224.066 130.263 M25.859 130.944 C 25.859 131.029,26.132 131.138,26.464 131.186 C 26.797 131.235,27.029 131.211,26.980 131.132 C 26.854 130.926,25.859 130.760,25.859 130.944 M216.863 131.076 C 216.788 131.151,216.728 131.313,216.730 131.435 C 216.732 131.583,216.783 131.578,216.884 131.421 C 216.967 131.292,217.265 131.143,217.547 131.090 L 218.061 130.995 217.530 130.967 C 217.239 130.952,216.939 131.001,216.863 131.076 M210.296 131.897 C 210.221 131.972,210.160 132.134,210.162 132.256 C 210.164 132.404,210.216 132.399,210.316 132.242 C 210.399 132.113,210.698 131.964,210.980 131.911 L 211.493 131.816 210.963 131.788 C 210.671 131.772,210.371 131.821,210.296 131.897 M31.606 132.571 C 31.775 132.686,32.114 132.781,32.358 132.783 C 32.603 132.785,32.850 132.901,32.907 133.043 C 32.988 133.244,33.014 133.242,33.026 133.036 C 33.043 132.759,32.909 132.693,31.914 132.489 C 31.460 132.396,31.379 132.418,31.606 132.571 M203.523 132.718 C 203.448 132.793,203.388 132.955,203.389 133.077 C 203.392 133.225,203.443 133.220,203.543 133.063 C 203.626 132.934,203.925 132.785,204.207 132.732 L 204.720 132.637 204.190 132.609 C 203.899 132.593,203.598 132.642,203.523 132.718 M35.009 133.429 C 35.070 133.527,35.337 133.607,35.603 133.607 C 35.869 133.607,36.134 133.702,36.191 133.817 C 36.249 133.933,36.272 133.912,36.244 133.771 C 36.216 133.630,35.902 133.455,35.546 133.383 C 35.190 133.310,34.948 133.330,35.009 133.429 M196.135 133.539 C 196.060 133.614,195.999 133.775,196.001 133.898 C 196.003 134.044,196.056 134.038,196.156 133.882 C 196.239 133.751,196.584 133.603,196.922 133.554 L 197.537 133.463 196.904 133.432 C 196.556 133.416,196.210 133.463,196.135 133.539 M188.746 134.360 C 188.671 134.435,188.611 134.596,188.613 134.719 C 188.615 134.866,188.666 134.862,188.767 134.705 C 188.850 134.575,189.148 134.426,189.430 134.374 L 189.944 134.279 189.413 134.251 C 189.122 134.235,188.822 134.284,188.746 134.360 M180.742 135.180 C 180.667 135.256,180.607 135.417,180.609 135.540 C 180.611 135.687,180.662 135.683,180.763 135.526 C 180.845 135.396,181.144 135.247,181.426 135.195 L 181.939 135.100 181.409 135.072 C 181.118 135.056,180.818 135.105,180.742 135.180 M171.917 136.001 C 171.842 136.077,171.782 136.238,171.784 136.361 C 171.786 136.508,171.837 136.504,171.937 136.347 C 172.020 136.217,172.319 136.068,172.601 136.016 L 173.114 135.920 172.584 135.892 C 172.293 135.877,171.992 135.926,171.917 136.001 M162.551 136.883 C 162.385 136.988,162.321 137.145,162.408 137.233 C 162.496 137.320,162.631 137.288,162.710 137.162 C 162.789 137.036,163.084 136.889,163.366 136.837 L 163.879 136.741 163.366 136.717 C 163.084 136.703,162.717 136.778,162.551 136.883 M160.749 137.032 C 160.947 137.084,161.270 137.084,161.467 137.032 C 161.665 136.981,161.503 136.938,161.108 136.938 C 160.713 136.938,160.552 136.981,160.749 137.032 M60.852 137.646 C 61.077 137.708,61.338 137.864,61.432 137.992 C 61.544 138.146,61.573 138.120,61.518 137.917 C 61.473 137.748,61.212 137.592,60.938 137.571 C 60.546 137.541,60.528 137.557,60.852 137.646 M152.215 137.643 C 152.006 137.852,152.052 138.122,152.295 138.122 C 152.415 138.122,152.459 138.036,152.394 137.930 C 152.329 137.825,152.577 137.701,152.946 137.655 L 153.617 137.572 152.984 137.539 C 152.636 137.521,152.290 137.568,152.215 137.643 M149.410 137.827 C 150.130 137.986,151.420 138.014,151.330 137.869 C 151.277 137.783,150.753 137.722,150.167 137.735 C 149.582 137.749,149.241 137.790,149.410 137.827 M69.523 138.472 C 69.777 138.521,69.985 138.653,69.985 138.764 C 69.985 138.876,70.078 138.909,70.193 138.838 C 70.547 138.619,70.195 138.326,69.613 138.355 C 69.130 138.380,69.118 138.394,69.523 138.472 M139.178 138.510 C 138.984 138.633,138.968 138.729,139.126 138.827 C 139.251 138.904,139.354 138.875,139.354 138.762 C 139.354 138.650,139.700 138.521,140.123 138.477 L 140.893 138.396 140.174 138.365 C 139.779 138.348,139.331 138.413,139.178 138.510 M71.681 138.680 C 71.993 138.727,72.454 138.726,72.707 138.677 C 72.959 138.628,72.704 138.590,72.140 138.591 C 71.575 138.593,71.369 138.633,71.681 138.680 M136.014 138.681 C 136.378 138.726,137.025 138.727,137.451 138.682 C 137.876 138.638,137.578 138.601,136.788 138.600 C 135.998 138.599,135.650 138.635,136.014 138.681 M78.399 139.148 C 78.801 139.408,79.220 139.408,79.220 139.148 C 79.220 139.035,78.966 138.944,78.656 138.946 C 78.216 138.949,78.159 138.993,78.399 139.148 M127.963 139.148 C 127.812 139.393,128.214 139.393,128.784 139.148 C 129.151 138.991,129.135 138.970,128.642 138.957 C 128.338 138.950,128.033 139.035,127.963 139.148 M83.787 139.300 C 84.436 139.341,84.967 139.462,84.967 139.569 C 84.967 139.676,85.105 139.764,85.274 139.764 C 85.749 139.764,85.639 139.417,85.121 139.278 C 84.867 139.210,84.197 139.170,83.633 139.190 L 82.606 139.226 83.787 139.300 M120.383 139.333 C 120.099 139.444,120.058 139.532,120.238 139.644 C 120.377 139.729,120.605 139.704,120.745 139.588 C 120.885 139.472,121.550 139.343,122.224 139.301 L 123.448 139.226 122.114 139.202 C 121.380 139.188,120.601 139.247,120.383 139.333 M88.610 139.506 C 89.428 139.545,90.767 139.545,91.585 139.506 C 92.404 139.467,91.734 139.435,90.097 139.435 C 88.461 139.435,87.791 139.467,88.610 139.506 M113.453 139.506 C 114.389 139.544,115.867 139.544,116.736 139.506 C 117.606 139.468,116.839 139.436,115.033 139.437 C 113.227 139.437,112.516 139.468,113.453 139.506 M95.331 139.764 C 95.913 140.014,98.512 140.014,98.512 139.764 C 98.512 139.642,97.786 139.565,96.716 139.573 C 95.522 139.583,95.058 139.647,95.331 139.764 M105.695 139.764 C 105.695 140.010,107.914 140.017,109.082 139.776 C 109.736 139.640,109.476 139.601,107.799 139.582 C 106.518 139.568,105.695 139.639,105.695 139.764 " stroke="none" fill="#68ccfc" fill-rule="evenodd"></path><path id="path4" d="M151.360 137.917 C 151.429 138.030,151.620 138.122,151.782 138.122 C 151.945 138.122,152.078 138.030,152.078 137.917 C 152.078 137.804,151.888 137.712,151.655 137.712 C 151.423 137.712,151.290 137.804,151.360 137.917 M70.292 138.738 C 70.223 138.851,70.356 138.943,70.588 138.943 C 70.821 138.943,71.011 138.851,71.011 138.738 C 71.011 138.625,70.878 138.533,70.715 138.533 C 70.552 138.533,70.362 138.625,70.292 138.738 M138.225 138.738 C 138.294 138.851,138.536 138.943,138.762 138.943 C 138.988 138.943,139.115 138.851,139.046 138.738 C 138.976 138.625,138.734 138.533,138.508 138.533 C 138.283 138.533,138.155 138.625,138.225 138.738 M126.785 139.293 C 127.041 139.343,127.410 139.341,127.606 139.289 C 127.803 139.238,127.594 139.198,127.142 139.200 C 126.691 139.202,126.530 139.244,126.785 139.293 M85.582 139.559 C 85.582 139.821,86.614 139.821,87.019 139.559 C 87.244 139.413,87.093 139.359,86.455 139.357 C 85.975 139.355,85.582 139.446,85.582 139.559 M118.420 139.559 C 118.420 139.672,118.841 139.764,119.355 139.764 C 119.927 139.764,120.242 139.684,120.164 139.559 C 120.094 139.446,119.673 139.354,119.229 139.354 C 118.784 139.354,118.420 139.446,118.420 139.559 M100.195 139.917 C 101.177 139.954,102.839 139.954,103.889 139.917 C 104.939 139.880,104.135 139.849,102.104 139.849 C 100.072 139.849,99.213 139.879,100.195 139.917 " stroke="none" fill="#54c4f4" fill-rule="evenodd"></path></g></svg>